<svg xmlns="http://www.w3.org/2000/svg" viewBox="0 0 400 300" width="406" height="306" class="illustration styles_illustrationTablet__1DWOa"><g id="_501_video_tutorial_outline" data-name="#501_video_tutorial_outline"><rect x="105.53" y="83.42" width="193.52" height="120.01" rx="7.25" fill="#093f68"></rect><path d="M291.81,204.42h-179a8.26,8.26,0,0,1-8.25-8.25V90.67a8.26,8.26,0,0,1,8.25-8.25h179a8.26,8.26,0,0,1,8.25,8.25v105.5A8.26,8.26,0,0,1,291.81,204.42Zm-179-120a6.26,6.26,0,0,0-6.25,6.25v105.5a6.26,6.26,0,0,0,6.25,6.25h179a6.26,6.26,0,0,0,6.25-6.25V90.67a6.26,6.26,0,0,0-6.25-6.25Z" fill="#093f68"></path><path d="M96,199.74H308.6a0,0,0,0,1,0,0V214a7,7,0,0,1-7,7H103a7,7,0,0,1-7-7V199.74a0,0,0,0,1,0,0Z" fill="#68e1fd"></path><path d="M301.62,222H103a8,8,0,0,1-8-8V199.74a1,1,0,0,1,1-1H308.6a1,1,0,0,1,1,1V214A8,8,0,0,1,301.62,222ZM97,200.74V214a6,6,0,0,0,6,6H301.62a6,6,0,0,0,6-6V200.74Z" fill="#093f68"></path><rect x="114.9" y="91.25" width="174.79" height="104.28" fill="#fff"></rect><path d="M289.69,196.53H114.9a1,1,0,0,1-1-1V91.25a1,1,0,0,1,1-1H289.69a1,1,0,0,1,1,1V195.53A1,1,0,0,1,289.69,196.53Zm-173.79-2H288.69V92.25H115.9Z" fill="#093f68"></path><path d="M289.69,159.65v35.88H277.2c-.55-1-1.09-1.92-1.64-2.77a33.53,33.53,0,0,1-5.2-13.77,2.65,2.65,0,0,1,.46-2.34c1-.93,2.61.07,3.51,1.11a24.39,24.39,0,0,1,4.85,8.68c-.95-3.24-1.53-6.54-2.4-9.79-.59-2.2-1.48-4.9-.31-7.11,2.34-4.45,6,7.23,6.12,9a51,51,0,0,1,.54-10.55c.42-2.76,1.18-5.67,3.28-7.52a3.59,3.59,0,0,1,2.4-1A2.4,2.4,0,0,1,289.69,159.65Z" fill="#70cc40"></path><path d="M289.69,196.53H277.2a1,1,0,0,1-.87-.51c-.51-.91-1.06-1.87-1.61-2.72a34.1,34.1,0,0,1-5.35-14.18,3.58,3.58,0,0,1,.77-3.2,2.34,2.34,0,0,1,1.79-.63,5.05,5.05,0,0,1,3.16,1.82c.39.45.77.92,1.13,1.4-.13-.54-.27-1.07-.41-1.6l-.14-.52c-.6-2.2-1.35-4.93-.09-7.32.84-1.59,1.93-1.61,2.5-1.49,1.38.31,2.62,2.3,3.58,4.52.1-1.43.26-2.86.48-4.26.41-2.65,1.18-6,3.61-8.11a4.51,4.51,0,0,1,3.09-1.28,3.39,3.39,0,0,1,1.24.28,1,1,0,0,1,.61.92v35.88A1,1,0,0,1,289.69,196.53Zm-11.91-2h10.91V160.45a2.82,2.82,0,0,0-1.62.78c-1.94,1.71-2.6,4.6-2.95,6.92a50.08,50.08,0,0,0-.53,10.35,1,1,0,0,1-2,.1h0c-.09-1.74-2.65-8.76-3.93-9.06a2.63,2.63,0,0,0-.31.46c-.89,1.7-.28,3.91.25,5.86l.14.53c.39,1.44.72,2.91,1,4.32.41,1.8.83,3.66,1.36,5.45a1,1,0,0,1-1.91.58,23.72,23.72,0,0,0-4.65-8.32,3.2,3.2,0,0,0-1.77-1.14.36.36,0,0,0-.31.11c-.28.25-.22,1-.15,1.47a32.36,32.36,0,0,0,5,13.36C276.88,193,277.34,193.75,277.78,194.53Z" fill="#093f68"></path><polygon points="217.49 206.97 187.1 206.97 185.27 198.24 219.32 198.24 217.49 206.97" fill="#093f68"></polygon><path d="M217.48,208H187.1a1,1,0,0,1-1-.8l-1.84-8.74a1,1,0,0,1,1-1.2h34a1,1,0,0,1,1,1.2l-1.84,8.74A1,1,0,0,1,217.48,208Zm-29.56-2h28.75l1.42-6.74H186.5Z" fill="#093f68"></path><path d="M206.69,194.7V176.34a14.44,14.44,0,0,0-14.44-14.44H169.48a14.44,14.44,0,0,0-14.43,14.44V194.7Z" fill="#68e1fd"></path><path d="M206.69,195.7H155.05a1,1,0,0,1-1-1V176.34a15.45,15.45,0,0,1,15.43-15.44h22.77a15.46,15.46,0,0,1,15.44,15.44V194.7A1,1,0,0,1,206.69,195.7Zm-50.64-2h49.64V176.34a13.46,13.46,0,0,0-13.44-13.44H169.48a13.45,13.45,0,0,0-13.43,13.44Z" fill="#093f68"></path><polygon points="190.28 161.91 181.04 185.49 171.59 161.91 190.28 161.91" fill="#f56132"></polygon><path d="M181,186.49a1,1,0,0,1-.93-.63l-9.45-23.58a1,1,0,0,1,.1-.94,1,1,0,0,1,.83-.44h18.69a1,1,0,0,1,.93,1.37L182,185.85a1,1,0,0,1-.93.64Zm-8-23.59,8,19.87,7.78-19.87Z" fill="#093f68"></path><path d="M177.78,159.16H185a0,0,0,0,1,0,0v4.16a3.07,3.07,0,0,1-3.07,3.07h-1.09a3.07,3.07,0,0,1-3.07-3.07v-4.16A0,0,0,0,1,177.78,159.16Z" fill="#ffc9b0"></path><path d="M181.94,167.38h-1.09a4.07,4.07,0,0,1-4.07-4.06v-4.16a1,1,0,0,1,1-1H185a1,1,0,0,1,1,1v4.16A4.07,4.07,0,0,1,181.94,167.38Zm-3.16-7.22v3.16a2.07,2.07,0,0,0,2.07,2.06h1.09a2.07,2.07,0,0,0,2.07-2.06v-3.16Z" fill="#093f68"></path><path d="M156.4,139.29a3.48,3.48,0,0,1-1.3-2.47q-.71-6.76-.74-13.57c0-4.57.22-9.29,2.26-13.38,2.28-4.57,6.8-9.81,12.35-6.51a1.29,1.29,0,0,0,.88.28,1.2,1.2,0,0,0,.62-.52c8.72-11.57,26.11-7,33.91,2.88,3.69,4.67,5.56,11.41,5.94,17.29.12,1.9-2.64,16.54-3.27,16.43l-4.48-.79c-1.88-.32-4.23.14-6.13.2l-14,.43c-5.33.17-10.61,1-15.95,1C163.7,140.57,158.76,141.17,156.4,139.29Z" fill="#725858"></path><path d="M162.54,141.67c-2.48,0-5.07-.25-6.76-1.6h0a4.47,4.47,0,0,1-1.68-3.15c-.47-4.52-.72-9.12-.74-13.66s.24-9.59,2.36-13.84c1-1.94,3.68-6.6,7.79-7.81a7.35,7.35,0,0,1,6,.89l.13.08,0-.06a17.9,17.9,0,0,1,14.65-7.24h.25a27.18,27.18,0,0,1,20.6,10.1c3.46,4.39,5.7,10.89,6.14,17.85.1,1.45-2.29,16.09-3.54,17.21a1.09,1.09,0,0,1-.9.26l-4.47-.78a15.56,15.56,0,0,0-3.9.06c-.71.06-1.39.13-2,.15l-14,.43c-2.33.08-4.7.29-7,.5-2.89.25-5.87.52-8.85.52h-.18c-.48,0-1,0-1.62,0S163.32,141.67,162.54,141.67Zm3-38.35a5,5,0,0,0-1.42.21c-3.35,1-5.7,5.07-6.56,6.79-1.82,3.65-2.18,7.81-2.15,12.93,0,4.48.27,9,.73,13.47a2.47,2.47,0,0,0,.93,1.78h0c1.64,1.32,5.16,1.2,7.72,1.12.64,0,1.22,0,1.75,0,2.95,0,5.91-.26,8.79-.52,2.33-.21,4.73-.42,7.12-.5l14-.43c.6,0,1.24-.08,1.9-.14a16.88,16.88,0,0,1,4.43,0h0c.58.1,2.54.42,3.76.65.85-2.67,2.92-13.66,2.82-15.25-.41-6.47-2.55-12.72-5.72-16.74a25.25,25.25,0,0,0-19.26-9.34,16.06,16.06,0,0,0-13.08,6.44,2.07,2.07,0,0,1-1.18.89,2.11,2.11,0,0,1-1.59-.38A5.85,5.85,0,0,0,165.49,103.32Zm41.59,35.4.14,0v0Z" fill="#093f68"></path><ellipse cx="160.75" cy="140.39" rx="7.02" ry="6.05" fill="#ffc9b0"></ellipse><path d="M160.75,147.44c-4.43,0-8-3.16-8-7.05s3.59-7,8-7,8,3.16,8,7S165.17,147.44,160.75,147.44Zm0-12.1c-3.32,0-6,2.27-6,5s2.7,5.05,6,5.05,6-2.26,6-5.05S164.06,135.34,160.75,135.34Z" fill="#093f68"></path><ellipse cx="201.67" cy="140.39" rx="7.02" ry="6.05" fill="#ffc9b0"></ellipse><path d="M201.67,147.44c-4.42,0-8-3.16-8-7.05s3.6-7,8-7,8,3.16,8,7S206.09,147.44,201.67,147.44Zm0-12.1c-3.32,0-6,2.27-6,5s2.7,5.05,6,5.05,6-2.26,6-5.05S205,135.34,201.67,135.34Z" fill="#093f68"></path><path d="M181.39,160.11h0a21.17,21.17,0,0,1-21.17-21.18V123.56c1.24,2,5.35,1.23,11.37-9.11,22.56,11.43,31,4.88,31,4.88v19.6A21.18,21.18,0,0,1,181.39,160.11Z" fill="#ffc9b0"></path><path d="M181.39,161.11a22.2,22.2,0,0,1-22.17-22.17V123.56a1,1,0,0,1,1.86-.52.8.8,0,0,0,.76.42h0c1.62,0,4.8-2.52,8.87-9.51a1,1,0,0,1,1.31-.39c11.31,5.73,18.86,6.77,23.21,6.63,4.65-.15,6.69-1.64,6.71-1.65a1,1,0,0,1,1.61.79v19.61A22.2,22.2,0,0,1,181.39,161.11ZM161.22,125.4v13.54a20.18,20.18,0,0,0,40.35,0V121c-3.41,1.42-12.46,3.25-29.59-5.22-3.76,6.23-7.33,9.66-10.1,9.69A3.52,3.52,0,0,1,161.22,125.4Z" fill="#093f68"></path><circle cx="172.26" cy="135.85" r="1.96" fill="#093f68"></circle><circle cx="190.52" cy="135.85" r="1.96" fill="#093f68"></circle><path d="M181.33,145a13.18,13.18,0,0,1-2-.16,1,1,0,0,1-.81-1.16,1,1,0,0,1,1.16-.81,9.47,9.47,0,0,0,2.44.08,16.32,16.32,0,0,0-1.6-4.13,1,1,0,0,1,1.77-.92c.89,1.7,2.28,4.75,1.67,6.1a1.41,1.41,0,0,1-1,.82A6.89,6.89,0,0,1,181.33,145Z" fill="#093f68"></path><path d="M166.81,195.7a1,1,0,0,1-1-1V174.33a1,1,0,1,1,2,0V194.7A1,1,0,0,1,166.81,195.7Z" fill="#093f68"></path><path d="M194.92,195.7a1,1,0,0,1-1-1V174.33a1,1,0,0,1,2,0V194.7A1,1,0,0,1,194.92,195.7Z" fill="#093f68"></path><path d="M175.91,131.75H165.7a2,2,0,0,1,0-4h10.21a2,2,0,0,1,0,4Z" fill="#093f68"></path><path d="M197.09,131.75H186.88a2,2,0,0,1,0-4h10.21a2,2,0,1,1,0,4Z" fill="#093f68"></path><path d="M185.62,147.88h-8s-.85,6.1,4.25,6.1C184.15,154,185.62,151.47,185.62,147.88Z" fill="#fff"></path><path d="M181.83,155a4.86,4.86,0,0,1-3.87-1.61c-1.84-2.1-1.39-5.48-1.37-5.63a1,1,0,0,1,1-.86h8a1,1,0,0,1,1,1C186.62,152.13,184.7,155,181.83,155Zm-3.3-6.1a5,5,0,0,0,.94,3.19,3,3,0,0,0,2.36.91c1.67,0,2.55-1.93,2.75-4.1Z" fill="#093f68"></path><path d="M301.24,77h-65.5a6.07,6.07,0,0,0-6.07,6.07v42L218,131.23l11.63.73v5.93a6.07,6.07,0,0,0,6.07,6.07h65.5a6.07,6.07,0,0,0,6.07-6.07V83.06A6.07,6.07,0,0,0,301.24,77Z" fill="#fff"></path><path d="M301.24,145h-65.5a7.08,7.08,0,0,1-7.07-7.07v-5L218,132.23a1,1,0,0,1-.41-1.88l11.1-5.9V83.06A7.08,7.08,0,0,1,235.74,76h65.5a7.08,7.08,0,0,1,7.07,7.07v54.83A7.08,7.08,0,0,1,301.24,145Zm-79.61-14.51,8.1.51a1,1,0,0,1,.94,1v5.93a5.07,5.07,0,0,0,5.07,5.07h65.5a5.08,5.08,0,0,0,5.07-5.07V83.06A5.08,5.08,0,0,0,301.24,78h-65.5a5.08,5.08,0,0,0-5.07,5.07v42a1,1,0,0,1-.53.88Z" fill="#093f68"></path><path d="M300.26,91.25H249.41a1,1,0,1,1,0-2h50.85a1,1,0,0,1,0,2Z" fill="#dfeaef"></path><path d="M292.6,101.5H237.88a1,1,0,0,1,0-2H292.6a1,1,0,0,1,0,2Z" fill="#dfeaef"></path><path d="M300.26,111.74H273.72a1,1,0,0,1,0-2h26.54a1,1,0,0,1,0,2Z" fill="#dfeaef"></path><path d="M262.67,111.74H237.88a1,1,0,0,1,0-2h24.79a1,1,0,0,1,0,2Z" fill="#dfeaef"></path><path d="M291.6,122H246.19a1,1,0,0,1,0-2H291.6a1,1,0,0,1,0,2Z" fill="#dfeaef"></path><path d="M281.35,132.23H237.88a1,1,0,0,1,0-2h43.47a1,1,0,0,1,0,2Z" fill="#dfeaef"></path><circle cx="124.38" cy="99.88" r="1.75" fill="#093f68"></circle><circle cx="133.79" cy="99.88" r="1.75" fill="#093f68"></circle><circle cx="143.19" cy="99.88" r="1.75" fill="#093f68"></circle><polygon points="155.38 195.53 144.53 177.34 135.19 182.21 141.47 195.53 155.38 195.53" fill="#68e1fd"></polygon><path d="M155.38,196.53H141.47a1,1,0,0,1-.9-.58l-6.28-13.31a1,1,0,0,1,.44-1.31l9.34-4.87a1,1,0,0,1,1.32.37L156.24,195a1,1,0,0,1,0,1A1,1,0,0,1,155.38,196.53Zm-13.28-2h11.52l-9.46-15.86-7.65,4Z" fill="#093f68"></path><path d="M144.53,177.34s-.3-9.84-1.6-9.34-1.81,4-1.81,4-3.72-14-5-14-2.31,0-2.52,2.62,2,9.8,2,9.8-4.52.14-5.82,3.76,5.42,8,5.42,8Z" fill="#ffc9b0"></path><path d="M135.19,183.21a1,1,0,0,1-.54-.16c-.76-.49-7.35-4.92-5.82-9.16a6.94,6.94,0,0,1,5.47-4.25c-.63-2.21-1.88-6.89-1.71-9,.25-3.26,1.8-3.54,3.51-3.54.71,0,1.86,0,5.08,11.39a2.84,2.84,0,0,1,1.39-1.37,1.26,1.26,0,0,1,1.16.13c.37.25,1.53,1,1.8,10.11a1,1,0,0,1-.53.92l-9.35,4.87A.92.92,0,0,1,135.19,183.21Zm.58-24.15c-1.06,0-1.08.34-1.19,1.68-.15,2,1.37,7.49,2,9.44a1,1,0,0,1-.14.88,1,1,0,0,1-.79.41s-3.86.18-4.91,3.1c-.77,2.13,2.73,5.18,4.55,6.48l8.25-4.3a49.47,49.47,0,0,0-.71-7.11,10.53,10.53,0,0,0-.69,2.52,1,1,0,0,1-2,.11C138.68,166.74,136.65,160.34,135.77,159.06Z" fill="#093f68"></path><path d="M135.19,168.4s4.22,5.63,3,7.43-6,4.68-8.61,2.06-3.65-4.67-1.54-6.37S135.19,168.4,135.19,168.4Z" fill="#ffc9b0"></path><path d="M132.28,179.94a4.67,4.67,0,0,1-3.38-1.33c-2.13-2.11-3.05-3.71-3-5.2a3.64,3.64,0,0,1,1.5-2.67c2.24-1.82,7.28-3.24,7.49-3.3a1,1,0,0,1,1.07.36c1.4,1.86,4.49,6.43,3,8.59a9.44,9.44,0,0,1-6.14,3.52Zm2.52-10.38a22.54,22.54,0,0,0-6.11,2.73,1.68,1.68,0,0,0-.77,1.22c0,.85.74,2.05,2.38,3.67a2.82,2.82,0,0,0,2.4.74,7.49,7.49,0,0,0,4.67-2.64C137.76,174.7,136.54,172,134.8,169.56Z" fill="#093f68"></path><polygon points="206.69 194.94 221.38 179.06 230.67 186.43 224.95 195.53 206.69 194.94" fill="#68e1fd"></polygon><path d="M225,196.53h0l-18.25-.59a1,1,0,0,1-.71-1.68l14.69-15.88a1,1,0,0,1,1.36-.1l9.29,7.37a1,1,0,0,1,.23,1.32l-5.73,9.09A1,1,0,0,1,225,196.53Zm-16-2.52,15.5.5,4.94-7.85-7.87-6.24Z" fill="#093f68"></path><path d="M220.88,179.81s6.78-9.09,8.44-7.21-1.55,5.1-1.55,5.1,19.88-5,19.68-1.62-18.13,11.21-18.13,11.21Z" fill="#ffc9b0"></path><path d="M229.32,188.29a1,1,0,0,1-.66-.25l-8.44-7.48a1,1,0,0,1-.14-1.35c1.36-1.82,6-7.76,8.57-7.86a1.75,1.75,0,0,1,1.42.59c1.08,1.22.81,2.77.12,4.13,13.89-3.28,17-1.93,17.61-1.41a1.73,1.73,0,0,1,.65,1.48c-.21,3.65-13.17,9.66-18.73,12.07A.92.92,0,0,1,229.32,188.29Zm-7.08-8.61,7.27,6.44c8.93-3.93,16.48-8.38,16.93-10-1.37-.82-9.65.31-18.43,2.54a1,1,0,0,1-1.11-.48,1,1,0,0,1,.16-1.2c.52-.52,2.26-2.63,1.58-3.64C227.67,173.51,224.84,176.32,222.24,179.68Z" fill="#093f68"></path><rect x="219.51" y="152.69" width="36.73" height="25.1" fill="#ffbc0e"></rect><path d="M256.24,178.79H219.51a1,1,0,0,1-1-1v-25.1a1,1,0,0,1,1-1h36.73a1,1,0,0,1,1,1v25.1A1,1,0,0,1,256.24,178.79Zm-35.73-2h34.73v-23.1H220.51Z" fill="#093f68"></path><path d="M256.24,159.86H219.51a1,1,0,0,1,0-2h36.73a1,1,0,0,1,0,2Z" fill="#093f68"></path></g></svg>