<svg xmlns="http://www.w3.org/2000/svg" viewBox="0 0 400 300" width="406" height="306" class="illustration styles_illustrationTablet__1DWOa"><g id="_478_online_research_flatline" data-name="#478_online_research_flatline"><polygon points="289.89 243.09 119.89 243.09 149.93 42.91 319.93 42.91 289.89 243.09" fill="#fff"></polygon><path d="M289.89,243.55h-170a.48.48,0,0,1-.35-.16.47.47,0,0,1-.1-.36l30-200.18a.44.44,0,0,1,.45-.39h170a.44.44,0,0,1,.34.16.44.44,0,0,1,.11.36l-30,200.18A.45.45,0,0,1,289.89,243.55Zm-169.47-.91H289.5L319.4,43.37H150.32Z" fill="#231f20"></path><polygon points="317.63 58.19 147.64 58.19 149.93 42.91 319.93 42.91 317.63 58.19" fill="#fff"></polygon><path d="M317.63,58.65h-170a.46.46,0,0,1-.35-.16.45.45,0,0,1-.1-.37l2.29-15.27a.44.44,0,0,1,.45-.39h170a.44.44,0,0,1,.34.16.44.44,0,0,1,.11.36l-2.29,15.28A.47.47,0,0,1,317.63,58.65Zm-169.46-.92H317.24l2.16-14.36H150.32Z" fill="#231f20"></path><path d="M280,200.64H227a.68.68,0,0,1-.69-.82h0a1,1,0,0,1,.94-.82h53.06a.69.69,0,0,1,.7.82h0A1,1,0,0,1,280,200.64Z" fill="#e6e7e8"></path><path d="M278.91,208.3H230.28a.66.66,0,0,1-.67-.78v-.07a1,1,0,0,1,.91-.79h48.63a.67.67,0,0,1,.67.79v.07A1,1,0,0,1,278.91,208.3Z" fill="#e6e7e8"></path><path d="M277.75,216H227a.68.68,0,0,1-.68-.8v0a1,1,0,0,1,.92-.8H278a.67.67,0,0,1,.68.8v0A1,1,0,0,1,277.75,216Z" fill="#e6e7e8"></path><path d="M276.58,223.62H223.52a.69.69,0,0,1-.7-.82h0a1,1,0,0,1,.94-.82h53.06a.68.68,0,0,1,.7.82h0A1,1,0,0,1,276.58,223.62Z" fill="#68e1fd"></path><polygon points="151.64 224.26 145.45 224.26 152.49 177.39 158.67 177.39 151.64 224.26" fill="#e6e7e8"></polygon><polygon points="151.64 224.26 145.45 224.26 148.47 204.17 154.66 204.17 151.64 224.26" fill="#68e1fd"></polygon><polygon points="164.02 224.26 157.83 224.26 164.86 177.39 171.05 177.39 164.02 224.26" fill="#e6e7e8"></polygon><polygon points="164.02 224.26 157.83 224.26 162.07 195.98 168.26 195.98 164.02 224.26" fill="#68e1fd"></polygon><polygon points="176.4 224.26 170.21 224.26 177.24 177.39 183.43 177.39 176.4 224.26" fill="#e6e7e8"></polygon><polygon points="176.4 224.26 170.21 224.26 172.87 206.51 179.06 206.51 176.4 224.26" fill="#68e1fd"></polygon><polygon points="188.78 224.26 182.59 224.26 189.62 177.39 195.81 177.39 188.78 224.26" fill="#e6e7e8"></polygon><polygon points="188.78 224.26 182.59 224.26 185.96 201.81 192.15 201.81 188.78 224.26" fill="#68e1fd"></polygon><polygon points="201.16 224.26 194.97 224.26 202 177.39 208.19 177.39 201.16 224.26" fill="#e6e7e8"></polygon><polygon points="201.16 224.26 194.97 224.26 199.19 196.12 205.38 196.12 201.16 224.26" fill="#68e1fd"></polygon><polygon points="213.54 224.26 207.35 224.26 214.38 177.39 220.57 177.39 213.54 224.26" fill="#e6e7e8"></polygon><polygon points="213.54 224.26 207.35 224.26 213.26 184.82 219.45 184.82 213.54 224.26" fill="#68e1fd"></polygon><path d="M195.87,83.13c18.6,0,31.46,15.13,28.67,33.73s-20.19,33.73-38.79,33.73-31.47-15.13-28.68-33.73S177.27,83.13,195.87,83.13Zm-2,13.19c-11.32,0-21.92,9.22-23.62,20.54s6.13,20.54,17.46,20.54,21.92-9.22,23.62-20.54S205.21,96.32,193.89,96.32Z" fill="#e6e7e8"></path><path d="M224.54,116.86c-2.78,18.55-20.1,33.64-38.64,33.73l2-13.2c11.27-.08,21.77-9.26,23.46-20.53Z" fill="#68e1fd"></path><ellipse cx="248.62" cy="90.06" rx="8.4" ry="7.23" transform="translate(5.11 193.13) rotate(-42.85)" fill="#e6e7e8"></ellipse><path d="M289.29,86.36h-24.8a.69.69,0,0,1-.7-.82h0a1,1,0,0,1,.95-.82h24.8a.69.69,0,0,1,.69.82h0A1,1,0,0,1,289.29,86.36Z" fill="#e6e7e8"></path><path d="M288.61,90.88h-24.8a.69.69,0,0,1-.69-.82h0a1,1,0,0,1,.94-.83h24.8a.7.7,0,0,1,.7.83h0A1,1,0,0,1,288.61,90.88Z" fill="#e6e7e8"></path><path d="M287.94,95.39h-24.8a.69.69,0,0,1-.7-.82h0a1,1,0,0,1,.94-.82h24.8a.69.69,0,0,1,.7.82h0A1,1,0,0,1,287.94,95.39Z" fill="#e6e7e8"></path><ellipse cx="243.8" cy="122.15" rx="8.4" ry="7.23" transform="translate(-18 198.43) rotate(-42.85)" fill="#68e1fd"></ellipse><path d="M284.47,118.45H259.68a.68.68,0,0,1-.7-.82h0a1,1,0,0,1,.94-.82h24.8a.69.69,0,0,1,.7.82h0A1,1,0,0,1,284.47,118.45Z" fill="#68e1fd"></path><path d="M283.8,123H259a.69.69,0,0,1-.7-.82h0a1,1,0,0,1,.94-.82H284a.68.68,0,0,1,.7.82h0A1,1,0,0,1,283.8,123Z" fill="#e6e7e8"></path><path d="M283.12,127.48h-24.8a.7.7,0,0,1-.7-.82h0a1,1,0,0,1,.95-.82h24.8a.69.69,0,0,1,.69.82h0A1,1,0,0,1,283.12,127.48Z" fill="#e6e7e8"></path><path d="M216.66,101.86a.5.5,0,0,1-.23-1l18.93-9.48a.5.5,0,0,1,.67.23.51.51,0,0,1-.22.67l-18.93,9.48A.59.59,0,0,1,216.66,101.86Z" fill="#231f20"></path><path d="M212.68,125.93a.5.5,0,0,1-.5-.49.49.49,0,0,1,.49-.51l19.38-.37h0a.5.5,0,0,1,.5.49.49.49,0,0,1-.49.51l-19.38.37Z" fill="#231f20"></path><path d="M199.88,75.83H170a1.38,1.38,0,0,1-1.4-1.64h0a2,2,0,0,1,1.89-1.64h29.9a1.38,1.38,0,0,1,1.4,1.64h0A2,2,0,0,1,199.88,75.83Z" fill="#e6e7e8"></path><ellipse cx="158.52" cy="50.55" rx="3.04" ry="2.61" transform="translate(7.93 121.31) rotate(-42.85)" fill="#68e1fd"></ellipse><ellipse cx="168.23" cy="50.55" rx="3.04" ry="2.61" transform="translate(10.52 127.91) rotate(-42.85)" fill="#e6e7e8"></ellipse><ellipse cx="177.94" cy="50.55" rx="3.04" ry="2.61" transform="translate(13.11 134.52) rotate(-42.85)" fill="#e6e7e8"></ellipse><path d="M135.46,248.33s-1.34,6.56.73,8,19.92-4.59,19.4-6.63S145,246.63,145,246.63,137,249,135.46,248.33Z" fill="#231f20"></path><path d="M137.35,257a2.59,2.59,0,0,1-1.45-.3c-2.27-1.58-1.08-7.81-.93-8.51a.49.49,0,0,1,.26-.35.48.48,0,0,1,.42,0c.95.41,5.93-.76,9.17-1.72a.62.62,0,0,1,.19,0c2.46.25,10.51,1.24,11.07,3.45.18.71-.57,1.32-1.16,1.72C151.79,253.47,141.48,257,137.35,257Zm-1.5-8.12c-.42,2.45-.6,6.15.62,7,.83.58,6.55-.59,12.7-3,4.69-1.81,5.87-2.91,5.94-3.18-.26-1-5.43-2.16-10.1-2.64C143.6,247.55,138.08,249.12,135.85,248.92Z" fill="#231f20"></path><path d="M109.56,248.33s-.21,7.59.61,8.52,19.2-1,18.28-3.51-8.26-5-8.26-5Z" fill="#231f20"></path><path d="M112.31,257.59a4.41,4.41,0,0,1-2.51-.41c-.89-1-.79-7-.74-8.87a.5.5,0,0,1,.5-.48h10.63l.16,0c.77.27,7.58,2.69,8.56,5.31.16.41.13,1-.86,1.62C125.75,256.17,116.79,257.59,112.31,257.59Zm-2.26-8.76c-.07,3.41.09,7.19.5,7.69,1,.48,13.5-.67,16.87-2.53.52-.29.56-.47.56-.47-.69-1.83-5.84-4-7.88-4.69Z" fill="#231f20"></path><path d="M108.73,223.3l.83,25s7.84,3.09,10.63,0l2.17-27.51Z" fill="#fff"></path><path d="M116.18,250.2a21.23,21.23,0,0,1-6.8-1.41.5.5,0,0,1-.32-.45l-.83-25a.5.5,0,0,1,.41-.51l13.63-2.48a.53.53,0,0,1,.42.12.47.47,0,0,1,.16.41l-2.16,27.51a.51.51,0,0,1-.13.29A5.71,5.71,0,0,1,116.18,250.2ZM110.05,248c1.41.51,7.34,2.44,9.65.14l2.11-26.68-12.57,2.29Z" fill="#231f20"></path><path d="M145,219.79v26.84a11.32,11.32,0,0,1-9.5,1.7l-5.89-32.25Z" fill="#fff"></path><path d="M138.43,249.23a11.82,11.82,0,0,1-3.11-.42.48.48,0,0,1-.35-.39l-5.9-32.25a.5.5,0,0,1,.61-.58l15.4,3.72a.49.49,0,0,1,.38.48v26.84a.49.49,0,0,1-.19.39A11.74,11.74,0,0,1,138.43,249.23Zm-2.54-1.31a10.93,10.93,0,0,0,8.57-1.55V220.19l-14.26-3.45Z" fill="#231f20"></path><path d="M104.67,153.52l-1.9,73.81s29.7,8.36,48.9-4L138,160.75Z" fill="#231f20"></path><path d="M124.56,230.55a91.71,91.71,0,0,1-21.92-2.74.53.53,0,0,1-.37-.5l1.9-73.8a.47.47,0,0,1,.19-.38.51.51,0,0,1,.41-.1l33.35,7.23a.49.49,0,0,1,.38.38l13.66,62.56a.49.49,0,0,1-.22.52C143.72,229,133.53,230.55,124.56,230.55Zm-21.28-3.61c3.48.9,30.19,7.25,47.83-3.87l-13.52-61.9-32.44-7Z" fill="#231f20"></path><path d="M140.63,139.71s5.11-18.49,7.58-20.25,7.28-3.93,7.28-1.45-3.56,22.32-9.14,21.69S140.63,139.71,140.63,139.71Z" fill="#fff"></path><path d="M146.62,140.21h-.32c-4.13-.47-5.14-.21-5.31-.14a.49.49,0,0,1-.49.14.51.51,0,0,1-.36-.6s0-.06,0-.09c.62-2.22,5.24-18.67,7.76-20.46,1.32-.93,5.48-3.39,7.29-2.45A1.46,1.46,0,0,1,156,118c0,2.25-2.63,17.25-7,21.19A3.48,3.48,0,0,1,146.62,140.21Zm-5.51-.37h0v0Zm1.33-.92a37.48,37.48,0,0,1,4,.28,2.39,2.39,0,0,0,1.87-.74C152.45,134.73,155,120,155,118c0-.4-.16-.48-.24-.52-1-.5-4.09.85-6.25,2.38-1.64,1.17-5.08,11.74-7.15,19.1A10.52,10.52,0,0,1,142.44,138.92Z" fill="#231f20"></path><path d="M167.41,135.35c-.46,0-20.4-3.09-20.4-3.09l11.27-28.93,22,2.22Z" fill="#fff"></path><path d="M167.41,135.85c-.46,0-15.79-2.37-20.48-3.1a.47.47,0,0,1-.35-.24.5.5,0,0,1,0-.43l11.27-28.93a.51.51,0,0,1,.52-.32l22,2.22a.54.54,0,0,1,.39.25.48.48,0,0,1,0,.45l-12.85,29.8A.51.51,0,0,1,167.41,135.85Zm-19.71-4c7.24,1.12,17.4,2.68,19.4,2.95L179.54,106l-20.93-2.11Z" fill="#231f20"></path><path d="M166.64,133.38h-.08l-17.09-2.67a.55.55,0,0,1-.36-.25.52.52,0,0,1,0-.44l10.38-25a.5.5,0,0,1,.52-.31l16.9,2a.49.49,0,0,1,.37.24.49.49,0,0,1,0,.44L167.1,133.06A.5.5,0,0,1,166.64,133.38Zm-16.39-3.57,16.07,2.51,9.8-24.71-15.87-1.83Z" fill="#d1d3d4"></path><path d="M103.29,86.49a14.4,14.4,0,0,0-5.84.31c-3.29.77-6.66,2.49-8,5.58-1.12,2.5-.71,5.42,0,8.06s1.8,5.24,1.94,8-.88,5.77-3.31,7.06a28.18,28.18,0,0,0,8.61-2.76,7.15,7.15,0,0,0,3.47-3.86,9.29,9.29,0,0,0-.11-4.32,19,19,0,0,1-.53-6.43c.33-2.14,1.63-4.28,3.68-4.94,1.8-.58,7,.66,6.83-2.45C109.88,88.29,105.16,86.83,103.29,86.49Z" fill="#fff"></path><path d="M88.07,116a.52.52,0,0,1-.47-.33.5.5,0,0,1,.24-.61c2.43-1.29,3.16-4.36,3-6.59a23.9,23.9,0,0,0-1.3-5.82c-.22-.69-.43-1.37-.62-2-1-3.53-1-6.2,0-8.41,1.69-3.79,6-5.3,8.39-5.86a14.72,14.72,0,0,1,6-.31c1.93.34,7,1.87,7.13,4.69a2.24,2.24,0,0,1-.56,1.72c-.94,1-2.82,1-4.48,1.06a9.15,9.15,0,0,0-2.12.18c-2.06.66-3.09,2.85-3.35,4.53a17.93,17.93,0,0,0,.48,6l0,.27a9.53,9.53,0,0,1,.09,4.56,7.5,7.5,0,0,1-3.69,4.15A28.25,28.25,0,0,1,88.17,116Zm13.19-29.17a16.43,16.43,0,0,0-3.69.47c-2.23.52-6.19,1.9-7.71,5.3-.88,2-.86,4.44.06,7.73.19.67.4,1.35.61,2a24.88,24.88,0,0,1,1.35,6.06A9.06,9.06,0,0,1,90,114.56a22.53,22.53,0,0,0,6.42-2.27,6.78,6.78,0,0,0,3.24-3.58,8.75,8.75,0,0,0-.12-4.08l-.06-.28A18.65,18.65,0,0,1,99,98a6.43,6.43,0,0,1,4-5.33,9.32,9.32,0,0,1,2.42-.23c1.38,0,3.11,0,3.76-.74a1.3,1.3,0,0,0,.3-1c-.11-2-4.39-3.41-6.32-3.76h0A11,11,0,0,0,101.26,86.81Z" fill="#231f20"></path><path d="M105.47,87.66A5.79,5.79,0,0,0,104,91.13a4.49,4.49,0,0,0,.37,2.51,3.39,3.39,0,0,0,2.5,1.68,1.83,1.83,0,0,0,1.34-.23,2.16,2.16,0,0,0,.68-.94C110,91.64,109.86,83.25,105.47,87.66Z" fill="#231f20"></path><path d="M107.24,95.85l-.46,0a3.91,3.91,0,0,1-2.87-1.95,4.76,4.76,0,0,1-.42-2.79,6.17,6.17,0,0,1,1.63-3.77h0c1.71-1.72,2.84-1.55,3.48-1.11,1.81,1.25,1.6,6.24.72,8.16a2.63,2.63,0,0,1-.84,1.14A2.13,2.13,0,0,1,107.24,95.85Zm.39-8.94a3.21,3.21,0,0,0-1.8,1.1h0a5.31,5.31,0,0,0-1.35,3.17,3.9,3.9,0,0,0,.31,2.22,2.9,2.9,0,0,0,2.13,1.43,1.44,1.44,0,0,0,1-.15,1.79,1.79,0,0,0,.5-.73c.76-1.68.83-6.09-.38-6.92A.65.65,0,0,0,107.63,86.91Zm-2.16.75h0Z" fill="#231f20"></path><path d="M118.78,108.62c-1,.73-2.24,1-4.15.36a10.09,10.09,0,0,1-4-2.78,17.23,17.23,0,0,1-3.33-17.84c2.44-6,10-10.87,16.24-7a8.46,8.46,0,0,1,3.84,6,2.55,2.55,0,0,1,2.47,1.26c1.36,2.12.88,3.95-.51,5.83-2.29,3.07-4.89,5.91-7,9.09C121,105.43,120.21,107.54,118.78,108.62Z" fill="#fff"></path><path d="M116.59,109.83a6.9,6.9,0,0,1-2.12-.38,10.44,10.44,0,0,1-4.25-2.91,17.62,17.62,0,0,1-3.43-18.37A14.63,14.63,0,0,1,115.43,80a9.62,9.62,0,0,1,8.32.94,9,9,0,0,1,4,5.91,3.2,3.2,0,0,1,2.46,1.52c1.75,2.73.53,5-.53,6.39s-2,2.52-2.94,3.73c-1.39,1.72-2.83,3.49-4.08,5.35-.41.6-.77,1.23-1.12,1.85a10.41,10.41,0,0,1-2.47,3.32h0A4,4,0,0,1,116.59,109.83Zm2.12-29.35a9.92,9.92,0,0,0-3,.48,13.59,13.59,0,0,0-8,7.59,16.83,16.83,0,0,0,3.24,17.3,9.4,9.4,0,0,0,3.84,2.65c2.06.68,3.09.17,3.69-.28a9.74,9.74,0,0,0,2.2-3c.36-.64.73-1.29,1.16-1.92,1.28-1.89,2.73-3.69,4.14-5.42,1-1.2,2-2.44,2.9-3.69,1.46-2,1.61-3.53.5-5.26a2.08,2.08,0,0,0-1.95-1,.45.45,0,0,1-.39-.08.52.52,0,0,1-.2-.34,7.92,7.92,0,0,0-3.62-5.67A8.36,8.36,0,0,0,118.71,80.48Zm.07,28.14h0Z" fill="#231f20"></path><path d="M127,95.28s3.31,4.36,2.74,5.35-2.67.49-2.67.49" fill="#fff"></path><path d="M128.15,101.74a5.59,5.59,0,0,1-1.23-.14.5.5,0,0,1,.23-1c.71.16,1.87.2,2.13-.25s-1.12-2.71-2.71-4.8a.51.51,0,0,1,.1-.7.49.49,0,0,1,.7.1c1.31,1.72,3.41,4.79,2.78,5.9A2.2,2.2,0,0,1,128.15,101.74Z" fill="#231f20"></path><path d="M124,119.14c-4.65-.66-11.44-7-11.46-7.17a93.21,93.21,0,0,1-.06-9.46s3.29-.19,5-4.22,5.71-3.82,8.45-9c2,1.44,1.67,4.78,1.79,6.94.17,3,.27,6.06.3,9.09,0,1.92-4.95,2.28-5.86,1.76C122.63,110,122.63,110,124,119.14Z" fill="#fff"></path><path d="M124,119.64H124c-4.61-.65-11.82-6.91-11.89-7.61a92.07,92.07,0,0,1-.06-9.53.5.5,0,0,1,.47-.48c.12,0,3-.24,4.55-3.91a9.33,9.33,0,0,1,3.85-4.17,13,13,0,0,0,4.62-4.87.48.48,0,0,1,.32-.25.53.53,0,0,1,.41.08c1.88,1.35,1.93,4,2,6.16,0,.41,0,.8,0,1.16.17,3,.27,6.09.3,9.11a1.86,1.86,0,0,1-1.08,1.63,8.63,8.63,0,0,1-4.67.8c.34,2.29.46,3,1.74,11.31a.46.46,0,0,1-.14.43A.47.47,0,0,1,124,119.64Zm-11-7.86c.72.74,6.2,5.71,10.38,6.73-1.31-8.4-1.32-8.47-1.76-11.34a.53.53,0,0,1,.22-.49.48.48,0,0,1,.53,0,7.26,7.26,0,0,0,4.52-.57c.39-.23.59-.49.59-.76,0-3-.13-6.06-.3-9.07,0-.37,0-.77,0-1.19,0-1.72-.06-3.81-1.12-5a14.24,14.24,0,0,1-4.62,4.67,8.46,8.46,0,0,0-3.5,3.74,6.94,6.94,0,0,1-4.95,4.45C113,104.36,112.82,109.1,113.06,111.78Z" fill="#231f20"></path><path d="M127.82,103.08a2.47,2.47,0,0,1-3.66-.76" fill="#fff"></path><path d="M126.17,104.1a2.62,2.62,0,0,1-.55,0,2.93,2.93,0,0,1-1.89-1.47.51.51,0,0,1,.18-.69.5.5,0,0,1,.68.18,2,2,0,0,0,1.23,1,2.54,2.54,0,0,0,1.71-.4.51.51,0,0,1,.7.12.49.49,0,0,1-.12.69A3.69,3.69,0,0,1,126.17,104.1Z" fill="#231f20"></path><path d="M122.18,107.09a5.28,5.28,0,0,1-3.87-1.65s.46,4.63,4.49,5.71Z" fill="#231f20"></path><path d="M122.8,111.65h-.13c-4.32-1.16-4.84-5.94-4.86-6.15a.5.5,0,0,1,.9-.35,4.79,4.79,0,0,0,3.46,1.45.5.5,0,0,1,.5.42l.63,4.07a.52.52,0,0,1-.17.45A.5.5,0,0,1,122.8,111.65Zm-3.67-4.85a5.81,5.81,0,0,0,3.05,3.61l-.43-2.84A6.3,6.3,0,0,1,119.13,106.8Z" fill="#231f20"></path><ellipse cx="125.86" cy="93.88" rx="1.08" ry="0.43" transform="translate(31.16 219.12) rotate(-89.63)" fill="#231f20"></ellipse><path d="M120.9,97.22a4.11,4.11,0,0,0-1-2,5.91,5.91,0,0,0-1.18-1.31,2,2,0,0,0-1.66-.39,1.83,1.83,0,0,0-1.13,1,3.47,3.47,0,0,0-.28,1.53,6.5,6.5,0,0,0,3.36,5.57l-.18-.17" fill="#fff"></path><path d="M119,102.11a.53.53,0,0,1-.24-.06,7,7,0,0,1-3.62-6,3.84,3.84,0,0,1,.33-1.74A2.27,2.27,0,0,1,116.94,93a2.42,2.42,0,0,1,2.09.47,6.05,6.05,0,0,1,1.29,1.41,4.46,4.46,0,0,1,1.08,2.28.5.5,0,0,1-.46.54.52.52,0,0,1-.54-.46,3.63,3.63,0,0,0-.88-1.77,5.34,5.34,0,0,0-1.08-1.19,1.48,1.48,0,0,0-1.23-.32,1.35,1.35,0,0,0-.81.75,2.91,2.91,0,0,0-.23,1.3,6,6,0,0,0,2.71,4.91.44.44,0,0,1,.31.14l.18.17a.49.49,0,0,1,.06.65A.5.5,0,0,1,119,102.11Z" fill="#231f20"></path><path d="M129.57,112.44s-16.06-6.49-21.08-.83-8.53,27.58-6.41,56c17.82,5.7,39.17-6.5,39.17-6.5S137.37,115.93,129.57,112.44Z" fill="#68e1fd"></path><path d="M163.21,131s5-11,5.91-9.89-.78,6.19-.78,6.19,5-6.81,6-6.27.31,5.92-2.17,10-5.57,8.7-5.57,8.7Z" fill="#fff"></path><path d="M166.64,140.2h0a.5.5,0,0,1-.42-.32l-3.42-8.7a.48.48,0,0,1,0-.39c1.7-3.75,4.75-10.06,6.09-10.25a.71.71,0,0,1,.65.24c.61.72.4,2.51,0,4.1,2.55-3.26,4.25-4.71,5.06-4.29a1.27,1.27,0,0,1,.62.85c.52,1.8-.48,6.38-2.58,9.82-2.45,4-5.55,8.67-5.58,8.72A.52.52,0,0,1,166.64,140.2ZM163.76,131l3,7.61c1-1.51,3.2-4.88,5-7.88,2.51-4.12,2.9-8.83,2.36-9.26-.59.09-3.3,3.23-5.4,6.12a.51.51,0,0,1-.64.15.5.5,0,0,1-.24-.61c.7-2.1,1.2-4.62,1-5.48C167.93,122.54,165.6,127,163.76,131Z" fill="#231f20"></path><path d="M122.8,121s10.69,31.59,21.84,30.66S169,139.17,169,139.17l-6.43-9.7s-16.26,10.23-19.51,6.3A79.8,79.8,0,0,1,133,116.89C130.81,111,121.27,110.89,122.8,121Z" fill="#68e1fd"></path><path d="M146.2,126.31a17,17,0,0,1,2.94-4.34c1.55-1.39,6.2-4.08,5.58-1.65s-4.23,4.75-4.23,4.75-.81,1.55-2.24,3.72" fill="#fff"></path><path d="M148.25,129.29a.57.57,0,0,1-.28-.08.51.51,0,0,1-.14-.7,42.49,42.49,0,0,0,2.21-3.67.47.47,0,0,1,.18-.19s3.45-2.24,4-4.45a.64.64,0,0,0,0-.36c-.48-.27-3.35,1.22-4.78,2.51a16.81,16.81,0,0,0-2.83,4.17.5.5,0,0,1-.9-.42,17.08,17.08,0,0,1,3.06-4.5c.84-.75,4.61-3.42,6-2.59.25.15.63.53.4,1.43-.6,2.37-3.69,4.55-4.33,5-.22.4-1,1.79-2.2,3.64A.51.51,0,0,1,148.25,129.29Z" fill="#231f20"></path><path d="M144.85,151.42a12.65,12.65,0,0,1-6.62-1.81c-6.95-4.18-16.56-25.73-17-26.65a.51.51,0,0,1,.26-.66.5.5,0,0,1,.66.26c.1.22,9.89,22.18,16.56,26.19,6.83,4.1,15-.12,22.12-4.78a.49.49,0,0,1,.69.14.5.5,0,0,1-.14.69C156.19,148.23,150.39,151.42,144.85,151.42Z" fill="#231f20"></path><polygon points="164.78 102.63 163.21 106.35 172.97 107.44 174.86 103.37 164.78 102.63" fill="#231f20"></polygon><path d="M173,107.94h-.05l-9.76-1.1a.47.47,0,0,1-.38-.24.51.51,0,0,1,0-.45l1.57-3.71a.49.49,0,0,1,.5-.31l10.08.74a.49.49,0,0,1,.39.24.52.52,0,0,1,0,.47l-1.89,4.07A.49.49,0,0,1,173,107.94Zm-9-2,8.74,1,1.43-3.1-9-.65Z" fill="#231f20"></path></g></svg>