<svg xmlns="http://www.w3.org/2000/svg" viewBox="0 0 400 300" width="406" height="306" class="illustration styles_illustrationTablet__1DWOa"><g id="_315_competition_flatline" data-name="#315_competition_flatline"><ellipse cx="123.95" cy="222.53" rx="67.33" ry="2.52" fill="#d1d3d4"></ellipse><ellipse cx="278.12" cy="222.53" rx="58.77" ry="2.52" fill="#d1d3d4"></ellipse><path d="M314.09,209.16s-4.17,7.43-3.76,7.43H319l5.28-7.43Z" fill="#fff"></path><path d="M319,217.09h-8.62a.54.54,0,0,1-.45-.26c-.17-.28-.34-.58,3.77-7.91a.49.49,0,0,1,.43-.26h10.15a.52.52,0,0,1,.44.27.49.49,0,0,1,0,.52l-5.28,7.43A.49.49,0,0,1,319,217.09Zm-8-1h7.7l4.57-6.43h-8.88C313,212.2,311.5,215,311,216.09Z" fill="#231f20"></path><path d="M292.55,171.26l35.38,8-16.56,33.3,11.49.86s25.95-32.92,22.43-38.29S319.08,157,319.08,157l-21.94,5.55Z" fill="#231f20"></path><path d="M322.86,213.92h0l-11.5-.86a.5.5,0,0,1-.4-.25.52.52,0,0,1,0-.47l16.28-32.73-34.76-7.86a.5.5,0,0,1-.34-.72l4.6-8.71a.5.5,0,0,1,.32-.25L319,156.51a.53.53,0,0,1,.37.05c.93.53,22.84,12.89,26.38,18.3s-19.78,35.47-22.46,38.87A.49.49,0,0,1,322.86,213.92Zm-10.71-1.8,10.48.78c10.33-13.13,24.67-33.8,22.25-37.5-3.26-5-23.76-16.67-25.87-17.87L297.48,163l-4.19,7.94L328,178.77a.51.51,0,0,1,.34.28.47.47,0,0,1,0,.43Z" fill="#231f20"></path><path d="M310.33,216.59l-3.75,5.52s21.09.09,21.1-.65-8.73-4.87-8.73-4.87Z" fill="#231f20"></path><path d="M310.31,222.62h-3.73a.5.5,0,0,1-.41-.78l3.75-5.52a.49.49,0,0,1,.41-.22H319a.54.54,0,0,1,.21,0c9,4.26,9,5,9,5.33C328.17,222,328.16,222.62,310.31,222.62Zm16.92-1Zm-19.7,0c6.69,0,16.43-.09,19.18-.41a82,82,0,0,0-7.88-4.12H310.6Z" fill="#231f20"></path><path d="M267.44,130.36l-16.94,8.15s-8.54,1.1-9.63,2.56-1.58,4.3.06,5.24,7.28-.32,7.28-.32l26.88-10.15Z" fill="#fff"></path><path d="M243,147.15a4.92,4.92,0,0,1-2.32-.41,2.59,2.59,0,0,1-1.23-1.79,5.63,5.63,0,0,1,1-4.18c1.14-1.53,8.26-2.53,9.89-2.74l16.86-8.12a.49.49,0,0,1,.51.05l7.65,5.47a.52.52,0,0,1,.21.47.52.52,0,0,1-.32.41l-26.89,10.15A29,29,0,0,1,243,147.15Zm24.39-16.21-16.67,8-.16,0c-3.45.44-8.62,1.47-9.28,2.36a4.68,4.68,0,0,0-.85,3.37,1.59,1.59,0,0,0,.75,1.13c1.07.62,4.81.1,6.92-.37L274,135.7Zm-16.89,7.57h0Z" fill="#231f20"></path><path d="M260,142l-5.92-8.39s51-23.59,51.78-22.74,0,20.55,0,20.55Z" fill="#68e1fd"></path><polygon points="155.13 212.11 160.47 216.97 165.82 213.5 158.69 205.37 155.13 212.11" fill="#fff"></polygon><path d="M160.47,217.47a.46.46,0,0,1-.33-.13l-5.35-4.86a.5.5,0,0,1-.11-.6l3.57-6.74a.5.5,0,0,1,.38-.27.52.52,0,0,1,.44.17l7.13,8.13a.53.53,0,0,1,.12.4.51.51,0,0,1-.22.35l-5.35,3.47A.48.48,0,0,1,160.47,217.47ZM155.75,212l4.78,4.34,4.54-2.94-6.28-7.15Z" fill="#231f20"></path><path d="M70.66,207.25c-.14.42-4.58,4.72-4.58,4.72l6.2,4.17,4.36-4.45Z" fill="#fff"></path><path d="M72.28,216.64a.6.6,0,0,1-.28-.08l-6.2-4.17a.49.49,0,0,1-.22-.37.53.53,0,0,1,.15-.41c2-2,4.27-4.23,4.48-4.57a.43.43,0,0,1,.31-.29.47.47,0,0,1,.44.1l6,4.44a.52.52,0,0,1,.19.37A.46.46,0,0,1,77,212l-4.35,4.45A.51.51,0,0,1,72.28,216.64Zm-5.41-4.74,5.35,3.59,3.66-3.74-5.12-3.81C70.3,208.48,69.26,209.58,66.87,211.9Z" fill="#231f20"></path><path d="M82.89,157.8l6.61,24.26L68.31,207.8l7.86,6.3s33.16-25.55,33-28.15-3-13.92-3-13.92l48.78,42.07,7.6-5.55-50.05-60.19Z" fill="#231f20"></path><path d="M154.89,214.6a.49.49,0,0,1-.32-.12l-47.6-41c.79,3.2,2.53,10.42,2.67,12.48.19,2.66-25.34,22.55-33.16,28.58a.5.5,0,0,1-.62,0L68,208.19a.49.49,0,0,1-.19-.33.53.53,0,0,1,.11-.37l21-25.55-6.54-24a.51.51,0,0,1,.33-.61l29.56-9.45a.51.51,0,0,1,.54.16l50,60.19a.51.51,0,0,1,.12.38.5.5,0,0,1-.21.34l-7.59,5.56A.53.53,0,0,1,154.89,214.6ZM69,207.73l7.16,5.74C88.69,203.81,108.32,188,108.65,186c-.19-2.5-3-13.69-3-13.8a.5.5,0,0,1,.23-.55.48.48,0,0,1,.59,0l48.48,41.8,6.84-5-49.49-59.52L83.5,158.13,90,181.93a.53.53,0,0,1-.1.45Z" fill="#231f20"></path><path d="M112.35,135l19.86,5.7s7-2.35,8.42-1.17,4.18,4.86,2.79,6.15-8.56,1.25-8.56,1.25L106.11,142Z" fill="#fff"></path><path d="M135,147.42h-.11L106,142.53a.51.51,0,0,1-.39-.33.49.49,0,0,1,.1-.5l6.23-7a.53.53,0,0,1,.52-.15l19.71,5.66c1.51-.5,7.28-2.29,8.76-1,1.11,1,3.3,3.62,3.34,5.51a1.77,1.77,0,0,1-.54,1.38C142.32,147.36,136.1,147.42,135,147.42Zm-27.89-5.73L135,146.43h0c2.62,0,7.19-.3,8.09-1.13a.82.82,0,0,0,.22-.63c0-1.36-1.82-3.77-3-4.77-.73-.61-4.69.18-7.94,1.26a.41.41,0,0,1-.29,0l-19.57-5.61Z" fill="#231f20"></path><path d="M104.08,127.12S118,134.3,118,135s-5.53,8.45-5.53,8.45l-8-2.87Z" fill="#68e1fd"></path><path d="M82.1,110.5c-2.11.17-4.39.25-6,1.07-4.75,2.38-4,9-3.12,13.21,2.31,11.16,6.55,22.11,10,33,0,0,24.93-1.35,29.55-9.44,0,0-6.63-32.89-9.69-36.41s-13-2.7-18.38-1.71A22.13,22.13,0,0,1,82.1,110.5Z" fill="#68e1fd"></path><path d="M112,146c-.81-6.28-9.2-34-9.2-34" fill="#231f20"></path><path d="M112,146.45a.5.5,0,0,1-.5-.43c-.79-6.18-9.09-33.65-9.18-33.93a.5.5,0,0,1,1-.28c.34,1.13,8.41,27.82,9.21,34.08a.5.5,0,0,1-.43.56Z" fill="#231f20"></path><path d="M74.6,113.54s-19.91,26.47-19.08,29,16.76,5.42,16.76,5.42l4.51-8.81-5.57-2.72,9.9-15.84Z" fill="#68e1fd"></path><path d="M71.22,136.9a.47.47,0,0,1-.27-.08.51.51,0,0,1-.16-.69L80.7,120.3a.49.49,0,0,1,.69-.16.51.51,0,0,1,.16.69l-9.91,15.83A.48.48,0,0,1,71.22,136.9Z" fill="#231f20"></path><path d="M84.76,108.38c-5.53,2.08-9.29-7.42-10.27-11.63a7.47,7.47,0,0,1-.22-2.82,6.44,6.44,0,0,1,3.18-4.22,41.11,41.11,0,0,1,5-2.25,24.16,24.16,0,0,0,9.45-7.54c.83-1.11,1.78-2.41,3.16-2.45a3,3,0,0,1,2.27,1.2,6.18,6.18,0,0,1,.87,6c-.74,2.07-2.29,3.38-3.86,4.78,1.12,1.21,1.63,1.49,1.57,3.14A13.38,13.38,0,0,1,94.67,97a32.68,32.68,0,0,1-2.49,4.18c-1.88,2.93-3.77,5.67-7.15,7.1Z" fill="#fff"></path><path d="M83.2,109.18a4.93,4.93,0,0,1-2.31-.61c-3.76-2-6.15-8.54-6.89-11.71a8.23,8.23,0,0,1-.23-3,7,7,0,0,1,3.42-4.56,21.25,21.25,0,0,1,3.45-1.63L82.2,87a23.62,23.62,0,0,0,9.26-7.39c.89-1.2,2-2.61,3.55-2.65a3.53,3.53,0,0,1,2.66,1.38,6.66,6.66,0,0,1,1,6.43A11.5,11.5,0,0,1,95,89.43l0,0a3.48,3.48,0,0,1,1.3,3.08,14.1,14.1,0,0,1-1.24,4.63,24.57,24.57,0,0,1-1.95,3.36c-.2.29-.39.59-.58.89-2,3.13-3.95,5.84-7.38,7.29l-.29.12A4.82,4.82,0,0,1,83.2,109.18ZM95.07,78h0c-1.11,0-2,1.17-2.72,2.18a24.66,24.66,0,0,1-9.7,7.77q-.8.35-1.59.66a21.42,21.42,0,0,0-3.31,1.56A5.93,5.93,0,0,0,74.76,94,7,7,0,0,0,75,96.64c.81,3.5,3.18,9.34,6.38,11a3.69,3.69,0,0,0,3.22.22h0l.25-.1c3.18-1.34,4.94-3.81,6.92-6.91.2-.3.4-.6.59-.9a21.36,21.36,0,0,0,1.87-3.22,12.81,12.81,0,0,0,1.16-4.26,2.48,2.48,0,0,0-1-2.34l-.41-.44A.5.5,0,0,1,94,89l.25-.22a10.91,10.91,0,0,0,3.46-4.36A5.66,5.66,0,0,0,96.91,79,2.54,2.54,0,0,0,95.07,78Z" fill="#231f20"></path><path d="M96.05,97.45s3,3.77,2.51,4.64-2.34.49-2.34.49" fill="#fff"></path><path d="M97.11,103.17a5.13,5.13,0,0,1-1-.1.5.5,0,0,1-.38-.6.49.49,0,0,1,.59-.38c.63.13,1.6.12,1.79-.24s-1.07-2.33-2.46-4.09a.49.49,0,0,1,.08-.7.5.5,0,0,1,.7.08c1.19,1.5,3.11,4.17,2.56,5.19A2,2,0,0,1,97.11,103.17Z" fill="#231f20"></path><path d="M94.46,88.72c1.8,1.23,2.13,7.67,2.28,9.56q.32,4,.45,8c.06,1.68-4.3,2.1-5.11,1.66l1.26,6.59s-2,.76-5.7-.56-3.76-2.15-3.76-2.15l-.38-7.7s2.88-.23,4.29-3.81.87-8.84.87-8.84S92.7,87.53,94.46,88.72Z" fill="#fff"></path><path d="M91.66,115.23a12.6,12.6,0,0,1-4.19-.81c-3.43-1.24-4-2.14-4.09-2.56L83,104.12a.5.5,0,0,1,.46-.52c.11,0,2.6-.27,3.86-3.49,1.34-3.42.85-8.56.84-8.61a.53.53,0,0,1,.15-.41c.44-.43,4.4-4.17,6.43-2.78h0c1.64,1.12,2.17,5.39,2.46,9.42l0,.51c.21,2.64.36,5.33.45,8a1.7,1.7,0,0,1-1,1.51,7.67,7.67,0,0,1-4,.82l1.12,5.85a.49.49,0,0,1-.32.56A5.53,5.53,0,0,1,91.66,115.23Zm-7.28-3.55c.11.15.73.82,3.43,1.8a9.88,9.88,0,0,0,5,.66L91.59,108a.51.51,0,0,1,.19-.5.52.52,0,0,1,.54,0,6.41,6.41,0,0,0,3.89-.58q.5-.3.48-.63c-.09-2.65-.24-5.33-.45-8l0-.51c-.14-1.89-.56-7.67-2-8.66h0c-1-.64-3.43,1-5,2.51.09,1.1.34,5.58-.93,8.83a6.18,6.18,0,0,1-4.23,4Z" fill="#231f20"></path><path d="M97,104.28a6.87,6.87,0,0,0-4.31-.79" fill="#fff"></path><path d="M97,104.78a.47.47,0,0,1-.25-.07,6.47,6.47,0,0,0-4-.73.51.51,0,0,1-.59-.39.49.49,0,0,1,.39-.59,7.31,7.31,0,0,1,4.66.85.5.5,0,0,1-.25.93Z" fill="#231f20"></path><path d="M91.11,99.59a3.61,3.61,0,0,0-.91-1.75,4.91,4.91,0,0,0-1.06-1.12,1.79,1.79,0,0,0-1.47-.32,1.66,1.66,0,0,0-1,.92,3.08,3.08,0,0,0-.22,1.34,5.74,5.74,0,0,0,3.07,4.83l-.16-.15" fill="#fff"></path><path d="M89.55,104a.49.49,0,0,1-.23-.06A6.17,6.17,0,0,1,86,98.68a3.52,3.52,0,0,1,.26-1.56,2.1,2.1,0,0,1,1.29-1.19,2.19,2.19,0,0,1,1.89.38,5.42,5.42,0,0,1,1.18,1.22,4,4,0,0,1,1,2,.5.5,0,0,1-.44.55.5.5,0,0,1-.55-.45,3.21,3.21,0,0,0-.8-1.5,4.63,4.63,0,0,0-1-1,1.24,1.24,0,0,0-1-.25,1.1,1.1,0,0,0-.65.64A2.53,2.53,0,0,0,87,98.65a5.25,5.25,0,0,0,2.44,4.19.48.48,0,0,1,.3.13l.17.15a.5.5,0,0,1,.07.65A.49.49,0,0,1,89.55,104Z" fill="#231f20"></path><path d="M92.08,107.92a7.09,7.09,0,0,1-3.51-2s.51,4,4.07,4.9Z" fill="#231f20"></path><path d="M92.64,111.36h-.12c-3.85-.94-4.42-5.15-4.44-5.32a.5.5,0,0,1,.88-.38,6.67,6.67,0,0,0,3.23,1.79.49.49,0,0,1,.38.39l.56,2.94a.49.49,0,0,1-.15.45A.48.48,0,0,1,92.64,111.36Zm-3.15-4a5,5,0,0,0,2.5,2.71l-.34-1.78A8.91,8.91,0,0,1,89.49,107.4Z" fill="#231f20"></path><ellipse cx="94.38" cy="95.74" rx="0.95" ry="0.37" transform="translate(-8.66 182.09) rotate(-85.38)" fill="#231f20"></ellipse><line x1="95.11" y1="94.92" x2="93.18" y2="94.23" fill="#fff"></line><path d="M95.11,95.42a.51.51,0,0,1-.17,0L93,94.7a.5.5,0,1,1,.34-.94l1.93.69a.5.5,0,0,1,.3.64A.49.49,0,0,1,95.11,95.42Z" fill="#231f20"></path><path d="M87.77,168a.51.51,0,0,1-.43-.23.52.52,0,0,1,.13-.72,7.63,7.63,0,0,0,3.11-7.59.5.5,0,0,1,.4-.6.51.51,0,0,1,.61.4,8.7,8.7,0,0,1-3.53,8.65A.52.52,0,0,1,87.77,168Z" fill="#fff"></path><path d="M90.81,114.69l-2,3,1.48.74s-.92,9-10.69,7.61C69.48,124.63,63,113.54,63,113.54l-7.53-.76,2.39,9.54s12.79,8.47,22.59,9.08C88,131.86,92,122,91.67,118.57l1.45-1.51Z" fill="#231f20"></path><path d="M73.77,215.26l-7.46-4.49-4.68,4.68L66,218.92l3.33,2.78,15.1.83s-1.86-3.8-5.65-3.89A5.5,5.5,0,0,1,73.77,215.26Z" fill="#231f20"></path><path d="M84.42,223h0l-15.1-.83a.53.53,0,0,1-.29-.12l-3.33-2.78-4.35-3.46a.52.52,0,0,1-.19-.37.54.54,0,0,1,.15-.38L66,210.42a.49.49,0,0,1,.61-.08L74,214.83a.45.45,0,0,1,.21.26,5,5,0,0,0,4.55,3c4,.1,6,4,6.09,4.17a.52.52,0,0,1,0,.5A.49.49,0,0,1,84.42,223Zm-14.91-1.82,14,.77a6.21,6.21,0,0,0-4.74-2.84,5.93,5.93,0,0,1-5.38-3.54l-7-4.2-4,4,3.92,3.13Z" fill="#231f20"></path><path d="M160.47,217l3.59,5.14s22.78.61,22.55,0-20.79-8.61-20.79-8.61Z" fill="#231f20"></path><path d="M180.1,222.89c-3.38,0-8.45-.08-16-.28a.49.49,0,0,1-.4-.21l-3.59-5.14a.56.56,0,0,1-.08-.38.54.54,0,0,1,.22-.33l5.35-3.47A.52.52,0,0,1,166,213c20.77,8.1,21,8.64,21.08,8.9a.56.56,0,0,1-.07.5C186.89,222.61,186.69,222.89,180.1,222.89Zm-15.77-1.27c6.79.18,17,.35,20.69.21-3.38-1.54-12.81-5.3-19.14-7.77l-4.7,3.05Z" fill="#231f20"></path><polygon points="249.37 212.11 244.02 216.97 238.67 213.5 245.8 205.37 249.37 212.11" fill="#fff"></polygon><path d="M244,217.47a.48.48,0,0,1-.28-.08l-5.34-3.47a.49.49,0,0,1-.23-.35.53.53,0,0,1,.12-.4l7.13-8.13a.53.53,0,0,1,.44-.17.49.49,0,0,1,.38.27l3.57,6.74a.5.5,0,0,1-.11.6l-5.35,4.86A.46.46,0,0,1,244,217.47Zm-4.59-4.07,4.54,2.94,4.77-4.34-3-5.75Z" fill="#231f20"></path><polygon points="319.08 157 309.7 165.56 249.6 214.1 242 208.55 292.05 148.36 319.08 157" fill="#231f20"></polygon><path d="M249.6,214.6a.53.53,0,0,1-.3-.09L241.71,209a.49.49,0,0,1-.2-.34.47.47,0,0,1,.11-.38L291.67,148a.49.49,0,0,1,.53-.16l27,8.64a.51.51,0,0,1,.33.37.5.5,0,0,1-.15.48L310,165.93l-60.12,48.56A.45.45,0,0,1,249.6,214.6Zm-6.87-6.14,6.85,5,59.8-48.3,8.73-8-25.89-8.27Z" fill="#231f20"></path><path d="M322.39,110.5c2.11.17,4.39.25,6,1.07,4.75,2.38,4,9,3.13,13.21-2.32,11.16-6.56,22.11-10,33,0,0-24.93-1.35-29.55-9.44,0,0,6.63-32.89,9.69-36.41s13.05-2.7,18.39-1.71A21.61,21.61,0,0,0,322.39,110.5Z" fill="#68e1fd"></path><path d="M44.51,215.11a1,1,0,0,1-.71-.29,1,1,0,0,1,0-1.42c8.91-8.93,12.67-18.57,16.66-28.78a151.87,151.87,0,0,1,7.16-16.37,72.3,72.3,0,0,1,11.82-15.71c4.11-4.11,10.33-9.2,16.66-10.09,9.89-1.4,142.06-.07,147.68,0,58.47-.23,62.16-.12,62.72.22h0c3.22,2.58,11.25,3.21,18.34,3.77,5.56.43,10.82.85,14.23,2.08,15.93,5.79,23.06,25.39,23.05,42.25a78.72,78.72,0,0,1-3.56,22.09,1,1,0,0,1-1.92-.57,76.59,76.59,0,0,0,3.48-21.52c0-16.16-6.71-34.91-21.73-40.37-3.16-1.14-8.28-1.54-13.71-2-7.56-.6-15.38-1.21-19.18-4-3.72-.16-45.5,0-61.73,0-1.39,0-137.65-1.39-147.39,0-10.21,1.44-22.14,15.63-27,24.76a149.49,149.49,0,0,0-7.07,16.15c-4.06,10.42-7.9,20.25-17.1,29.47A1,1,0,0,1,44.51,215.11Z" fill="#231f20"></path><path d="M292.55,146c.8-6.28,9.19-34,9.19-34" fill="#231f20"></path><path d="M292.55,146.45h-.07a.5.5,0,0,1-.43-.56c.8-6.26,8.87-32.95,9.21-34.08a.5.5,0,1,1,1,.28c-.09.28-8.38,27.75-9.18,33.93A.5.5,0,0,1,292.55,146.45Z" fill="#231f20"></path><path d="M319.74,108.38C325.26,110.46,329,101,330,96.75c1.39-6-5.68-9.47-10.39-11.2-2.41-.89-5.12-1.73-7.48-.71A4.67,4.67,0,0,0,309.69,87c-.35,1,.25,1.1.18,1.74-.13,1.15-1.31,2.25-1.24,3.79A13.07,13.07,0,0,0,309.82,97a32.75,32.75,0,0,0,2.5,4.18c1.87,2.93,3.76,5.67,7.14,7.1Z" fill="#fff"></path><path d="M321.29,109.18a4.86,4.86,0,0,1-1.73-.33h0l-.29-.12c-3.43-1.45-5.37-4.16-7.38-7.29-.19-.31-.39-.61-.58-.9a23.47,23.47,0,0,1-1.95-3.35,14.13,14.13,0,0,1-1.23-4.63,5,5,0,0,1,.74-2.56,4.26,4.26,0,0,0,.5-1.3.57.57,0,0,0-.09-.34,1.74,1.74,0,0,1-.06-1.52,5.15,5.15,0,0,1,2.71-2.46c2.54-1.09,5.38-.21,7.85.7,8.22,3,11.82,7,10.71,11.78-.74,3.17-3.12,9.69-6.89,11.71A4.93,4.93,0,0,1,321.29,109.18Zm-6.77-24.3a5.44,5.44,0,0,0-2.19.42,4.23,4.23,0,0,0-2.17,1.87.8.8,0,0,0,0,.77,1.49,1.49,0,0,1,.17.87,4.92,4.92,0,0,1-.6,1.64,4.19,4.19,0,0,0-.63,2.07,12.6,12.6,0,0,0,1.15,4.26,22.08,22.08,0,0,0,1.86,3.21l.6.91c2,3.1,3.74,5.57,6.92,6.91l.25.1h0a3.69,3.69,0,0,0,3.22-.22c3.2-1.71,5.57-7.55,6.38-11,1-4.23-2.41-7.8-10.07-10.63A15,15,0,0,0,314.52,84.88Z" fill="#231f20"></path><path d="M308.44,97.45s-3,3.77-2.51,4.64,2.34.49,2.34.49" fill="#fff"></path><path d="M307.38,103.17a2,2,0,0,1-1.89-.84c-.55-1,1.37-3.69,2.56-5.19a.5.5,0,0,1,.79.62c-1.4,1.76-2.55,3.69-2.46,4.12s1.26.32,1.78.21a.5.5,0,0,1,.6.38.52.52,0,0,1-.39.6A5.13,5.13,0,0,1,307.38,103.17Z" fill="#231f20"></path><path d="M310,88.72c-1.8,1.23-2.13,7.67-2.28,9.56q-.31,4-.45,8c-.05,1.68,4.3,2.1,5.11,1.66l-1.26,6.59s2,.76,5.7-.56,3.76-2.15,3.76-2.15l.38-7.7s-2.88-.23-4.28-3.81-.88-8.84-.88-8.84S311.79,87.53,310,88.72Z" fill="#fff"></path><path d="M312.83,115.23A5.6,5.6,0,0,1,311,115a.5.5,0,0,1-.32-.56l1.12-5.85a7.65,7.65,0,0,1-4-.82,1.7,1.7,0,0,1-.95-1.51c.09-2.65.24-5.34.45-8l0-.52c.3-4,.82-8.29,2.46-9.41h0c2-1.39,6,2.35,6.43,2.78a.49.49,0,0,1,.15.41s-.5,5.19.84,8.61c1.28,3.25,3.83,3.49,3.86,3.49a.5.5,0,0,1,.46.52l-.38,7.7c-.06.46-.66,1.36-4.09,2.6A12.55,12.55,0,0,1,312.83,115.23Zm-1.1-1.09a9.88,9.88,0,0,0,4.95-.66c2.71-1,3.32-1.65,3.44-1.8l.35-7.17a6.18,6.18,0,0,1-4.23-4c-1.27-3.25-1-7.73-.93-8.83-1.57-1.48-4.05-3.16-5-2.51-1.46,1-1.88,6.76-2,8.66l0,.51c-.21,2.65-.36,5.33-.45,8,0,.22.16.43.48.63a6.44,6.44,0,0,0,3.9.58.5.5,0,0,1,.72.54Z" fill="#231f20"></path><path d="M307.54,104.28a6.9,6.9,0,0,1,4.31-.79" fill="#fff"></path><path d="M307.54,104.78a.5.5,0,0,1-.25-.93A7.24,7.24,0,0,1,312,103a.49.49,0,0,1,.38.59.51.51,0,0,1-.59.39,6.39,6.39,0,0,0-4,.73A.47.47,0,0,1,307.54,104.78Z" fill="#231f20"></path><path d="M313.39,99.59a3.51,3.51,0,0,1,.9-1.75,5.14,5.14,0,0,1,1.06-1.12,1.79,1.79,0,0,1,1.47-.32,1.63,1.63,0,0,1,1,.92,3.08,3.08,0,0,1,.22,1.34,5.72,5.72,0,0,1-3.07,4.83l.16-.15" fill="#fff"></path><path d="M314.94,104a.5.5,0,0,1-.33-.87l.15-.15a.53.53,0,0,1,.31-.13,5.25,5.25,0,0,0,2.44-4.19,2.53,2.53,0,0,0-.18-1.13,1.1,1.1,0,0,0-.65-.64,1.25,1.25,0,0,0-1,.25,4.63,4.63,0,0,0-1,1,3.19,3.19,0,0,0-.8,1.51.52.52,0,0,1-.55.44.5.5,0,0,1-.44-.55,4,4,0,0,1,1-2,5.65,5.65,0,0,1,1.18-1.22,2.2,2.2,0,0,1,1.9-.38,2.08,2.08,0,0,1,1.28,1.19,3.52,3.52,0,0,1,.26,1.56,6.26,6.26,0,0,1-3.34,5.25A.49.49,0,0,1,314.94,104Z" fill="#231f20"></path><path d="M312.41,107.92a7.09,7.09,0,0,0,3.51-2s-.5,4-4.07,4.9Z" fill="#231f20"></path><path d="M311.85,111.36a.49.49,0,0,1-.34-.14.49.49,0,0,1-.15-.45l.56-2.94a.49.49,0,0,1,.39-.39,6.7,6.7,0,0,0,3.22-1.79.51.51,0,0,1,.59-.15.52.52,0,0,1,.3.53c0,.17-.59,4.38-4.45,5.32Zm1-3-.34,1.78A5,5,0,0,0,315,107.4,8.88,8.88,0,0,1,312.84,108.33Z" fill="#231f20"></path><ellipse cx="310.12" cy="95.74" rx="0.37" ry="0.95" transform="translate(-6.71 25.31) rotate(-4.62)" fill="#231f20"></ellipse><line x1="309.38" y1="94.92" x2="311.31" y2="94.23" fill="#fff"></line><path d="M309.38,95.42a.5.5,0,0,1-.17-1l1.93-.69a.5.5,0,0,1,.34.94l-1.93.69A.47.47,0,0,1,309.38,95.42Z" fill="#231f20"></path><path d="M323.15,138.9l-18.73,3.33s-3.36-2.36-5-2.5-8.33,2.09-7.36,4.17,5.69,3.33,7.36,2.64a6,6,0,0,1,2.8-.56s8.48,1.81,23.12-.83" fill="#fff"></path><path d="M298.2,147.22c-2.28,0-5.74-1.22-6.62-3.11a1.55,1.55,0,0,1,.21-1.65c1.33-1.92,6.22-3.35,7.64-3.23,1.59.14,4.33,2,5.1,2.47l18.53-3.29a.49.49,0,0,1,.58.4.5.5,0,0,1-.4.58l-18.74,3.33a.45.45,0,0,1-.37-.08c-.91-.63-3.52-2.31-4.78-2.41s-5.74,1.35-6.74,2.8c-.23.33-.19.52-.13.66.85,1.82,5.29,3,6.72,2.39a6.43,6.43,0,0,1,3.05-.59c.13,0,8.62,1.76,23-.83a.5.5,0,1,1,.18,1c-14.56,2.63-22.95.91-23.31.83H302a6.36,6.36,0,0,0-2.37.53A3.63,3.63,0,0,1,298.2,147.22Z" fill="#231f20"></path><path d="M244,217v4.9s-24.9,1.26-24.67.66,19.32-9,19.32-9Z" fill="#231f20"></path><path d="M222.38,223.18c-3.19,0-3.33-.19-3.43-.33a.56.56,0,0,1-.07-.5c.09-.24.31-.8,19.59-9.31a.52.52,0,0,1,.47,0l5.35,3.47a.52.52,0,0,1,.23.42v4.9a.5.5,0,0,1-.48.5C231.79,223,225.57,223.18,222.38,223.18Zm-1.49-1c3.88.06,15.08-.42,22.63-.8v-4.14l-4.9-3.18C232.77,216.65,224.06,220.58,220.89,222.19Z" fill="#231f20"></path><path d="M312.25,114.94l-3.23,1,.87,1.74s-16.11,6.28-27.09,0l-7.36,1.25s6.22,6.11,6.36,6.53,18.92,1.11,29.24-7.26l2.35-.83Z" fill="#231f20"></path><path d="M243.86,140.73c-1.09,1.83-2.21,3.9-1.75,6a.88.88,0,0,0,.36.61c.38.21.81-.14,1.09-.46a24,24,0,0,0,3.43-5.19" fill="#fff"></path><path d="M242.71,147.88a1,1,0,0,1-.48-.12,1.4,1.4,0,0,1-.61-.95c-.49-2.2.62-4.34,1.81-6.34a.5.5,0,0,1,.86.51c-1.13,1.9-2.11,3.76-1.69,5.62.1.45.11.28.12.28s.21-.06.46-.35a23.2,23.2,0,0,0,3.36-5.08.51.51,0,0,1,.67-.23.5.5,0,0,1,.23.67,24.59,24.59,0,0,1-3.5,5.3A1.71,1.71,0,0,1,242.71,147.88Z" fill="#231f20"></path><path d="M331.48,114.94s12,26.77,11.2,29.28-34.24,4.14-34.24,4.14l.94-8.15,17.3-2.76-3.31-16.89Z" fill="#68e1fd"></path><path d="M309.7,139.4a.5.5,0,0,1-.5-.46.49.49,0,0,1,.45-.54L326,137l-5.6-19.32a.5.5,0,1,1,1-.28l5.77,19.91a.48.48,0,0,1-.06.42.49.49,0,0,1-.37.22l-17,1.45Z" fill="#231f20"></path><path d="M308.48,148.86h0a.51.51,0,0,1-.5-.5.5.5,0,0,1,.5-.5h0c.39,0,24.73,0,32.06-3.14a.5.5,0,0,1,.39.92C333.43,148.81,309.89,148.86,308.48,148.86Z" fill="#231f20"></path><path d="M73.24,139.52,92,142.86s3.36-2.37,5-2.5,8.33,2.08,7.36,4.16-5.7,3.34-7.36,2.64a6.09,6.09,0,0,0-2.8-.55s-8.48,1.8-23.13-.84" fill="#fff"></path><path d="M98.19,147.84a3.72,3.72,0,0,1-1.39-.22,5.86,5.86,0,0,0-2.55-.52c-.3.07-8.69,1.79-23.26-.83a.5.5,0,0,1-.41-.58.5.5,0,0,1,.58-.41c14.36,2.59,22.85.86,22.93.84a6.31,6.31,0,0,1,3.1.58c1.43.6,5.87-.57,6.72-2.39.06-.13.1-.33-.13-.66-1-1.44-5.47-2.9-6.74-2.8s-3.88,1.78-4.78,2.42a.54.54,0,0,1-.37.08L73.15,140a.48.48,0,0,1-.4-.57.49.49,0,0,1,.58-.41l18.53,3.3c.77-.53,3.51-2.34,5.1-2.47,1.43-.13,6.31,1.31,7.64,3.22a1.55,1.55,0,0,1,.21,1.65C103.93,146.62,100.46,147.84,98.19,147.84Z" fill="#231f20"></path><path d="M140.6,139.54c1.47,1.55,3,3.32,3,5.45a.92.92,0,0,1-.22.68c-.32.28-.82,0-1.17-.21a24.07,24.07,0,0,1-4.49-4.3" fill="#fff"></path><path d="M143.07,146.29a1.9,1.9,0,0,1-1.11-.43,24.42,24.42,0,0,1-4.59-4.38.5.5,0,0,1,.78-.63,23.34,23.34,0,0,0,4.4,4.2c.32.24.51.25.54.24s0,0,0-.3c0-1.9-1.38-3.5-2.9-5.1a.5.5,0,1,1,.73-.69c1.59,1.69,3.16,3.52,3.17,5.78a1.38,1.38,0,0,1-.39,1.06A1,1,0,0,1,143.07,146.29Z" fill="#231f20"></path><path d="M289.11,157.68a7.84,7.84,0,0,1-1.64-.18.51.51,0,0,1-.4-.61.52.52,0,0,1,.61-.4c4,.85,7.2-2.25,7.23-2.28a.51.51,0,1,1,.72.73A10.11,10.11,0,0,1,289.11,157.68Z" fill="#fff"></path><path d="M322.88,162.83a6.32,6.32,0,0,1-5.13-2.73.52.52,0,0,1,.88-.54,5.2,5.2,0,0,0,5.81,2,.51.51,0,0,1,.63.36.51.51,0,0,1-.37.63A6.79,6.79,0,0,1,322.88,162.83Z" fill="#fff"></path></g></svg>