<?xml version="1.0" standalone="no"?>
<!DOCTYPE svg PUBLIC "-//W3C//DTD SVG 20010904//EN"
 "http://www.w3.org/TR/2001/REC-SVG-20010904/DTD/svg10.dtd">
<svg version="1.0" xmlns="http://www.w3.org/2000/svg"
 width="1268.000000pt" height="502.000000pt" viewBox="0 0 1268.000000 502.000000"
 preserveAspectRatio="xMidYMid meet">

<g transform="translate(0.000000,502.000000) scale(0.100000,-0.100000)"
fill="#000000" stroke="none">
<path d="M11133 4402 c-70 -98 -238 -337 -373 -532 -158 -227 -324 -453 -468
-631 -122 -153 -294 -371 -383 -485 -142 -183 -158 -208 -146 -223 8 -9 133
-167 278 -351 210 -266 368 -483 764 -1052 l499 -718 558 0 c307 0 558 2 558
5 0 2 -351 491 -780 1086 -508 705 -777 1086 -771 1093 10 12 1374 1902 1410
1954 l22 32 -520 0 -520 0 -128 -178z"/>
<path d="M6343 2888 c3 -334 8 -445 21 -527 10 -57 14 -106 11 -110 -4 -3 -16
8 -28 24 -137 191 -358 287 -622 272 -370 -21 -616 -272 -707 -718 -20 -100
-23 -143 -23 -349 1 -292 21 -413 100 -602 90 -212 243 -360 440 -425 70 -23
97 -26 220 -27 105 -1 156 3 205 17 143 39 254 111 337 218 25 32 52 59 58 59
6 0 36 -59 65 -130 l53 -130 213 0 214 0 0 1425 0 1425 -281 0 -281 0 5 -422z
m-258 -810 c92 -23 165 -78 213 -158 71 -121 103 -429 67 -660 -30 -197 -83
-291 -199 -350 -68 -35 -71 -35 -195 -35 -148 0 -191 14 -265 88 -86 86 -131
210 -145 397 -30 420 89 691 321 729 58 9 140 5 203 -11z"/>
<path d="M1560 2540 c-541 -75 -820 -441 -820 -1075 0 -247 38 -435 119 -600
158 -319 453 -460 921 -442 214 8 348 41 488 119 l52 30 0 240 0 239 -42 -26
c-134 -83 -301 -137 -463 -150 -263 -20 -412 86 -482 345 -25 91 -25 424 0
522 67 268 231 384 497 351 72 -9 268 -66 371 -108 13 -5 30 31 91 192 42 109
79 206 83 215 5 13 -3 22 -32 36 -63 32 -190 73 -292 93 -111 23 -388 33 -491
19z"/>
<path d="M3465 2536 c-518 -85 -795 -452 -795 -1051 0 -629 353 -1034 926
-1062 397 -19 705 121 889 406 122 188 171 403 162 704 -6 227 -33 348 -113
512 -121 250 -340 417 -629 482 -95 21 -338 26 -440 9z m297 -447 c209 -45
303 -209 315 -549 17 -469 -128 -686 -445 -668 -201 12 -316 120 -369 348 -26
109 -26 423 1 535 25 108 56 175 107 230 90 97 237 136 391 104z"/>
<path d="M8134 2535 c-393 -61 -655 -320 -746 -740 -28 -133 -35 -397 -14
-542 57 -387 268 -653 610 -769 78 -27 224 -57 236 -49 10 6 290 393 290 400
0 3 -40 5 -88 5 -149 0 -266 43 -353 130 -78 78 -139 224 -139 334 l0 46 478
0 477 0 173 240 173 240 -21 86 c-72 303 -286 523 -586 599 -144 36 -336 44
-490 20z m322 -400 c147 -43 242 -173 261 -356 l6 -59 -392 0 -391 0 0 28 c0
15 7 55 15 90 36 154 131 265 255 298 63 17 187 17 246 -1z"/>
</g>
</svg>
